Mere Dad Ki Maruti 2013 Hindi Movies Best SCam Rip XviD New Source Sample Included ~ rDX

Screen Shots :
 
http://myimghosting.serveftp.com/13/MereDadKiMaruti.html
 
http://myimghost.cwahi.net/MereDadKiMaruti.html


Format                                   : AVI
Format/Info                              : Audio Video Interleave
File size                                : 685 MiB
Duration                                 : 1h 36mn
Overall bit rate                         : 995 Kbps
Writing library                          : MPlayer

Video
ID                                       : 0
Format                                   : MPEG-4 Visual
Format profile                           : Simple@L1
Format settings, BVOP                    : No
Format settings, QPel                    : No
Format settings, GMC                     : No warppoints
Format settings, Matrix                  : Default (H.263)
Codec ID                                 : DX50
Codec ID/Hint                            : DivX 5
Duration                                 : 1h 36mn
Bit rate                                 : 342 Kbps
Width                                    : 352 pixels
Height                                   : 288 pixels
Display aspect ratio                     : 1.222
Frame rate                               : 25.000 fps
Standard                                 : PAL
Color space                              : YUV
Chroma subsampling                       : 4:2:0
Bit depth                                : 8 bits
Scan type                                : Interlaced
Scan order                               : Top Field First
Compression mode                         : Lossy
Bits/(Pixel*Frame)                       : 0.135
Stream size                              : 235 MiB (34%)
Writing library                          : Lavc52.30.1

Audio
ID                                       : 1
Format                                   : MPEG Audio
Format version                           : Version 1
Format profile                           : Layer 3
Mode                                     : Joint stereo
Mode extension                           : MS Stereo
Codec ID                                 : 55
Codec ID/Hint                            : MP3
Duration                                 : 1h 36mn
Bit rate mode                            : Constant
Bit rate                                 : 160 Kbps
Channel(s)                               : 2 channels
Sampling rate                            : 44.1 KHz
Compression mode                         : Lossy
Stream size                              : 110 MiB (16%)
Alignment                                : Aligned on interleaves
Interleave, duration                     : 26 ms (0.65 video frame)
Interleave, preload duration             : 809 ms
Writing library                          : LAME3.98.2